<svg xmlns="http://www.w3.org/2000/svg" viewBox="0 0 960 560" role="img" aria-labelledby="title desc">
  <title id="title">TBM Pustaka Berkiprah App preview</title>
  <desc id="desc">Modern web application dashboard preview with library profile content.</desc>
  <defs>
    <linearGradient id="bg" x1="0" x2="1" y1="0" y2="1">
      <stop stop-color="#dbeafe"/>
      <stop offset=".55" stop-color="#ecfeff"/>
      <stop offset="1" stop-color="#f5f3ff"/>
    </linearGradient>
    <linearGradient id="accent" x1="0" x2="1">
      <stop stop-color="#2563eb"/>
      <stop offset="1" stop-color="#06b6d4"/>
    </linearGradient>
    <filter id="shadow" x="-20%" y="-20%" width="140%" height="140%">
      <feDropShadow dx="0" dy="24" stdDeviation="28" flood-color="#0f172a" flood-opacity=".16"/>
    </filter>
  </defs>
  <rect width="960" height="560" fill="url(#bg)"/>
  <rect x="92" y="78" width="776" height="404" rx="34" fill="#fff" filter="url(#shadow)"/>
  <rect x="92" y="78" width="776" height="70" rx="34" fill="#f8fafc"/>
  <circle cx="133" cy="113" r="9" fill="#ef4444"/>
  <circle cx="162" cy="113" r="9" fill="#f59e0b"/>
  <circle cx="191" cy="113" r="9" fill="#22c55e"/>
  <rect x="232" y="104" width="220" height="18" rx="9" fill="#dbeafe"/>
  <rect x="128" y="188" width="260" height="238" rx="24" fill="#eff6ff"/>
  <rect x="158" y="218" width="150" height="18" rx="9" fill="#1e3a8a"/>
  <rect x="158" y="256" width="190" height="18" rx="9" fill="#bfdbfe"/>
  <rect x="158" y="292" width="150" height="18" rx="9" fill="#dbeafe"/>
  <rect x="158" y="342" width="120" height="44" rx="22" fill="url(#accent)"/>
  <rect x="424" y="188" width="344" height="96" rx="24" fill="#e0f2fe"/>
  <rect x="424" y="314" width="152" height="112" rx="24" fill="#f1f5f9"/>
  <rect x="616" y="314" width="152" height="112" rx="24" fill="#f1f5f9"/>
  <path d="M462 249c36-76 102-31 130-2 31-58 105-65 138-4" fill="none" stroke="#0891b2" stroke-width="14" stroke-linecap="round"/>
  <text x="158" y="231" fill="#fff" font-family="Arial, sans-serif" font-size="16" font-weight="700">TBM App</text>
</svg>
